HIERARCHY
ROOT Hips
{
  OFFSET 0 0 0
  CHANNELS 6 Xposition Yposition Zposition Zrotation Yrotation Xrotation
  JOINT LeftThigh
  {
    OFFSET 8.409438 0 -5.917753
    CHANNELS 3 Zrotation Yrotation Xrotation
    JOINT LeftLeg
    {
      OFFSET 0 0 -42.358652
      CHANNELS 3 Zrotation Yrotation Xrotation
      JOINT LeftFoot
      {
        OFFSET 0 0 -39.357303
        CHANNELS 3 Zrotation Yrotation Xrotation
      }
    }
  }
  JOINT RightThigh
  {
    OFFSET -8.409438 0 -5.917753
    CHANNELS 3 Zrotation Yrotation Xrotation
    JOINT RightLeg
    {
      OFFSET 0 0 -42.358652
      CHANNELS 3 Zrotation Yrotation Xrotation
      JOINT RightFoot
      {
        OFFSET 0 0 -39.357303
        CHANNELS 3 Zrotation Yrotation Xrotation
      }
    }
  }
  JOINT SpineLow
  {
    OFFSET 0 0 4.719101
    CHANNELS 3 Zrotation Yrotation Xrotation
    JOINT SpineMid
    {
      OFFSET 0 0 12.899191
      CHANNELS 3 Zrotation Yrotation Xrotation
      JOINT Chest
      {
        OFFSET 0 0 12.899191
        CHANNELS 3 Zrotation Yrotation Xrotation
        JOINT LeftShoulder
        {
          OFFSET 7.550562 1.41573 9.438202
          CHANNELS 3 Zrotation Yrotation Xrotation
          JOINT LeftArm
          {
            OFFSET 9.155056 0 4.247191
            CHANNELS 3 Zrotation Yrotation Xrotation
            JOINT LeftForearm
            {
              OFFSET 0 0 25.771955
              CHANNELS 3 Zrotation Yrotation Xrotation
              JOINT LeftHand
              {
                OFFSET 0 0 25.197169
                CHANNELS 3 Zrotation Yrotation Xrotation
              }
            }
          }
        }
        JOINT RightShoulder
        {
          OFFSET -7.550562 1.41573 9.438202
          CHANNELS 3 Zrotation Yrotation Xrotation
          JOINT RightArm
          {
            OFFSET -9.155056 0 4.247191
            CHANNELS 3 Zrotation Yrotation Xrotation
            JOINT RightForearm
            {
              OFFSET 0 0 -25.771955
              CHANNELS 3 Zrotation Yrotation Xrotation
              JOINT RightHand
              {
                OFFSET 0 0 -25.197169
                CHANNELS 3 Zrotation Yrotation Xrotation
              }
            }
          }
        }
        JOINT Neck
        {
          OFFSET 0 0 15.101124
          CHANNELS 3 Zrotation Yrotation Xrotation
          JOINT Head
          {
            OFFSET 0 0 11.325843
            CHANNELS 3 Zrotation Yrotation Xrotation
            End Site
            {
              OFFSET 0 0 14.157303
            }
          }
        }
      }
    }
  }
}
MOTION
Frames: 7
Frame Time: 0.0
0.0  93.25843  0.0  0.795886  0.941109  -117.845968  11.704003  -5.105963  5.359435  -10.06358  1.340092  22.910852  -0.250518  0.327678  2.14596  19.021709  -27.988074  -79.322144  27.037939  33.707757  87.977126  4.003125  7.296311  4.221271  2.064097  -1.900097  2.778434  5.426088  -5.418882  7.441117  5.426088  -5.418882  7.441117  -21.1166  25.67295  9.341881  111.427379  43.188858  -165.666002  -35.13627  12.124227  77.191195  64.953949  -13.642687  7.790216  0.205728  -9.57784  23.690761  76.109152  64.244626  12.813494  -24.081115  -31.635909  -105.947561  56.438426  -1.626964  -17.798201  -6.266505  5.944332  13.251397  -4.827656  4.325436  9.991952  
0.0  93.25843  0.0  0.540291  1.243052  -119.304961  11.319314  -5.450291  7.096158  -10.340602  1.267555  22.681605  -0.069789  0.238544  2.172751  19.851395  -28.724905  -81.689701  26.270094  34.154611  84.518062  3.741568  7.010542  3.531115  2.006705  -2.041534  2.87816  5.245326  -5.805972  7.709459  5.245326  -5.805973  7.70946  -21.292018  26.341654  9.75418  111.805284  43.374163  -165.371507  -36.0623  12.271948  76.696041  64.6355  -13.618307  8.32818  -0.140656  -9.162566  24.337496  76.774059  64.425593  13.514894  -24.365939  -31.668374  -105.986815  56.624714  -1.576891  -17.840702  -6.435683  6.263075  13.656501  -4.965344  4.556927  10.299632  
0.0  93.25843  0.0  0.293258  1.430905  -120.598444  10.442808  -5.530448  8.630782  -10.112114  1.012877  22.452774  0.073103  0.152779  2.206988  20.591495  -29.435073  -83.50251  24.978265  34.424124  79.921323  3.369006  6.542283  2.85836  1.869667  -2.191595  2.92752  4.84933  -6.20303  7.847981  4.849329  -6.20303  7.847981  -20.846586  27.205897  10.335129  112.273232  43.497624  -165.036998  -36.434057  12.861542  76.626441  64.785836  -13.531075  7.941535  -0.112473  -8.553001  25.119451  77.957224  64.481295  14.543889  -24.73806  -31.713074  -105.852254  56.611274  -1.545942  -17.968151  -6.233133  6.723838  14.21743  -4.829647  4.901782  10.720907  
0.0  93.25843  0.0  0.090264  1.471815  -121.598993  9.794012  -5.605678  9.950327  -9.661515  0.638379  22.230357  0.021566  0.077667  2.14559  21.239515  -30.047429  -84.743924  22.936026  34.364379  73.853925  2.590229  6.181903  2.03568  1.724383  -2.323625  2.944089  4.435368  -6.547245  7.90036  4.435367  -6.547245  7.90036  -20.191703  28.033046  10.899203  112.872052  43.560312  -164.727321  -36.968824  13.478043  76.455858  65.021655  -13.353073  7.603038  0.151418  -8.009241  25.946253  79.338119  64.511918  15.662564  -25.003785  -31.867519  -105.764208  56.86429  -1.497409  -17.938627  -5.945025  7.18681  14.760518  -4.630522  5.250927  11.127229  
0.0  93.25843  0.0  -0.084026  1.403372  -122.219203  9.103209  -5.528916  10.753478  -9.107951  0.285833  22.02965  0.059324  0.055867  2.16005  21.78035  -30.833455  -85.323598  20.040862  34.188702  65.871489  2.144364  5.76011  1.417912  1.570957  -2.432822  2.94443  4.003042  -6.82707  7.911841  4.003043  -6.82707  7.911841  -19.405548  28.738966  11.295031  113.48518  43.588041  -164.386925  -37.489798  14.062637  76.34948  65.406701  -12.989645  7.01404  0.618399  -7.500119  26.61025  80.456931  64.680898  16.647715  -25.288689  -31.882975  -105.603467  56.89514  -1.493972  -17.885157  -5.463074  7.614734  15.259125  -4.285582  5.5795  11.49686  
0.0  93.25843  0.0  -0.203426  1.210229  -122.439241  8.830143  -5.590059  11.155857  -8.612187  -0.033359  21.831127  -0.004673  0.055865  2.147067  22.285854  -31.851575  -85.236623  16.403093  33.715478  56.071092  1.976915  5.331618  1.235868  1.467194  -2.487392  2.943796  3.712818  -6.963658  7.918814  3.712818  -6.963658  7.918814  -18.799798  29.027297  11.46888  114.302132  43.581777  -163.989912  -37.935008  14.667263  76.311777  65.797712  -12.469318  6.340655  1.081476  -7.273774  26.927571  81.548986  64.723516  17.473267  -25.552176  -31.745435  -105.367965  57.038172  -1.443781  -17.664902  -5.063386  7.886605  15.5586  -3.996548  5.791174  11.717018  
0.0  93.25843  0.0  -0.2459  0.941503  -122.386858  8.883541  -5.716956  11.239292  -8.534728  -0.130044  21.482903  0.037007  0.011925  2.15676  22.49213  -33.136261  -84.198112  12.517055  32.417877  44.916558  2.174794  4.933881  1.278186  1.438679  -2.48952  2.936105  3.63532  -6.965699  7.900698  3.63532  -6.965699  7.900698  -18.527283  28.916192  11.579886  114.935806  43.595848  -163.586965  -38.614167  15.171593  76.122839  66.134658  -11.87703  5.657194  1.244927  -7.312117  26.953894  82.045666  64.879974  17.933048  -25.558628  -31.691018  -105.286211  57.01858  -1.507379  -17.464623  -4.827092  7.92639  15.734603  -3.822814  5.825719  11.845798  
